<svg xmlns="http://www.w3.org/2000/svg" width="40" height="40" viewBox="0 0 40 40">
    <g fill="none" fill-rule="evenodd">
        <circle cx="20" cy="20" r="20"/>
        <path fill="#040F2A" fill-rule="nonzero" stroke="#040F2A" stroke-width=".2" d="M21.63 32.548H17.7c-.657 0-1.19-.534-1.19-1.19V22.49h-2.294c-.657 0-1.191-.534-1.191-1.19v-3.8c0-.657.534-1.19 1.19-1.19h2.294v-1.903c0-1.887.593-3.492 1.713-4.642C19.347 8.61 20.92 8 22.771 8l2.997.005c.656.001 1.189.535 1.189 1.19v3.528c0 .657-.534 1.191-1.19 1.191h-2.019c-.616 0-.772.124-.806.162-.055.063-.12.24-.12.73v1.503h2.793c.21 0 .414.052.589.15.378.21.613.61.613 1.041l-.002 3.8c0 .656-.534 1.19-1.19 1.19H22.82v8.867c0 .657-.534 1.19-1.19 1.19h0zm-3.683-1.44h3.435v-9.262c0-.438.357-.795.795-.795h3.199l.001-3.303h-3.2c-.439 0-.795-.356-.795-.795v-2.147c0-.562.057-1.202.481-1.682.513-.581 1.321-.648 1.885-.648l1.77-.001V9.444l-2.749-.005c-2.974 0-4.822 1.904-4.822 4.968v2.546c0 .439-.356.795-.794.795h-2.69v3.303h2.69c.438 0 .794.357.794.795v9.263z"/>
    </g>
</svg>
