<svg xmlns="http://www.w3.org/2000/svg" width="40" height="40" viewBox="0 0 40 40">
    <g fill="none" fill-rule="evenodd">
        <circle cx="20" cy="20" r="20"/>
        <g fill="#040F2A" fill-rule="nonzero">
            <path d="M15.84 0H6.039C2.708 0 0 2.709 0 6.038v9.803c0 3.33 2.708 6.038 6.038 6.038h9.803c3.33 0 6.038-2.709 6.038-6.038V6.038C21.879 2.708 19.17 0 15.84 0zm4.098 15.84c0 2.26-1.838 4.097-4.097 4.097H6.038c-2.26 0-4.097-1.837-4.097-4.096V6.038c0-2.259 1.838-4.097 4.097-4.097h9.803c2.259 0 4.097 1.838 4.097 4.097v9.803z" transform="translate(9 9)"/>
            <path d="M10.94 5.302c-3.11 0-5.638 2.529-5.638 5.638 0 3.108 2.529 5.637 5.637 5.637 3.109 0 5.638-2.529 5.638-5.637 0-3.109-2.53-5.638-5.638-5.638zm0 9.334c-2.039 0-3.697-1.658-3.697-3.697 0-2.038 1.658-3.696 3.696-3.696 2.039 0 3.697 1.658 3.697 3.696 0 2.039-1.659 3.697-3.697 3.697zM16.813 3.656c-.374 0-.741.151-1.005.417-.266.264-.418.631-.418 1.007 0 .374.152.741.418 1.006.264.264.631.417 1.005.417.376 0 .742-.153 1.007-.417.265-.265.417-.632.417-1.006 0-.376-.152-.743-.417-1.007-.264-.266-.631-.417-1.007-.417z" transform="translate(9 9)"/>
        </g>
    </g>
</svg>
